<svg width="60" height="60" viewBox="0 0 60 60" fill="none" xmlns="http://www.w3.org/2000/svg">
<path d="M42.5 17.5C37.265 17.5 33.4725 21.4175 29.9975 25.865C26.5225 21.4175 22.7325 17.5 17.5 17.5C10.6075 17.5 5.00004 23.1075 5.00004 30C4.99602 31.6403 5.31619 33.2653 5.94215 34.7815C6.5681 36.2977 7.48751 37.6752 8.64754 38.835C9.80297 40 11.1783 40.9238 12.6936 41.553C14.209 42.1821 15.8343 42.504 17.475 42.5H17.505C22.7275 42.4875 26.5175 38.57 29.995 34.1225C33.4725 38.5775 37.265 42.5 42.5 42.5C49.3925 42.5 55 36.8925 55 30C55 23.1075 49.3925 17.5 42.5 17.5ZM17.495 37.5L17.475 40V37.5C15.4775 37.5 13.6 36.72 12.19 35.305C11.145 34.2539 10.4344 32.9172 10.1476 31.463C9.86086 30.0089 10.0108 28.5024 10.5785 27.1333C11.1463 25.7642 12.1064 24.5937 13.3381 23.7692C14.5698 22.9447 16.0179 22.5031 17.5 22.5C20.825 22.5 23.9 26.095 26.865 29.995C23.895 33.8925 20.82 37.4925 17.495 37.5ZM42.5 37.5C39.175 37.5 36.0975 33.9 33.1275 29.995C36.095 26.095 39.17 22.5 42.5 22.5C46.635 22.5 50 25.865 50 30C50 34.135 46.635 37.5 42.5 37.5Z" fill="#6A6464"/>
</svg>
