<svg width="60" height="60" viewBox="0 0 60 60" fill="none" xmlns="http://www.w3.org/2000/svg">
<path d="M30 5C16.215 5 5 16.215 5 30C5 43.785 16.215 55 30 55C43.785 55 55 43.785 55 30C55 16.215 43.785 5 30 5ZM10 30C10 27.7525 10.39 25.595 11.0775 23.5775L15 27.5L20 32.5V37.5L25 42.5L27.5 45V49.8275C17.6525 48.59 10 40.18 10 30ZM45.825 42.1825C44.1925 40.8675 41.7175 40 40 40V37.5C40 36.1739 39.4732 34.9021 38.5355 33.9645C37.5979 33.0268 36.3261 32.5 35 32.5H25V25C26.3261 25 27.5979 24.4732 28.5355 23.5355C29.4732 22.5979 30 21.3261 30 20V17.5H32.5C33.8261 17.5 35.0979 16.9732 36.0355 16.0355C36.9732 15.0979 37.5 13.8261 37.5 12.5V11.4725C44.82 14.445 50 21.625 50 30C49.9995 34.4117 48.5307 38.6978 45.825 42.1825Z" fill="#931D1D"/>
</svg>
