<svg width="60" height="60" viewBox="0 0 60 60" fill="none" xmlns="http://www.w3.org/2000/svg">
<path d="M46.825 13.525L43.625 16.025L30 26.15L16.375 15.925L13.175 13.425C12.4211 12.8014 11.5009 12.4126 10.5282 12.3069C9.55557 12.2011 8.57327 12.3831 7.70302 12.8302C6.83277 13.2773 6.11282 13.9699 5.63235 14.8222C5.15189 15.6745 4.93202 16.649 5 17.625V46.6C5 47.5017 5.35821 48.3665 5.99584 49.0042C6.63346 49.6418 7.49826 50 8.4 50H16.375V30.7L30 40.925L43.625 30.7V50H51.6C52.5017 50 53.3665 49.6418 54.0042 49.0042C54.6418 48.3665 55 47.5017 55 46.6V17.625C55.0469 16.6574 54.8118 15.697 54.3231 14.8606C53.8345 14.0241 53.1133 13.3476 52.2474 12.9133C51.3815 12.479 50.408 12.3056 49.4454 12.4142C48.4828 12.5228 47.5724 12.9087 46.825 13.525Z" fill="#6A6464"/>
</svg>
