<svg width="60" height="60" viewBox="0 0 60 60" fill="none" xmlns="http://www.w3.org/2000/svg">
<path d="M52.3676 20.7624C52.3423 18.869 51.9879 16.9943 51.3201 15.2224C50.7409 13.7278 49.8564 12.3704 48.723 11.237C47.5896 10.1035 46.2322 9.21902 44.7376 8.63989C42.9884 7.98329 41.1405 7.62825 39.2726 7.58989C36.8676 7.48239 36.1051 7.45239 30.0001 7.45239C23.8951 7.45239 23.1126 7.45239 20.7251 7.58989C18.858 7.62853 17.0109 7.98356 15.2626 8.63989C13.7677 9.21862 12.4101 10.103 11.2766 11.2365C10.1432 12.3699 9.25878 13.7275 8.68005 15.2224C8.02213 16.9702 7.66786 18.8177 7.63255 20.6849C7.52505 23.0924 7.49255 23.8549 7.49255 29.9599C7.49255 36.0649 7.49255 36.8449 7.63255 39.2349C7.67005 41.1049 8.02255 42.9499 8.68005 44.7024C9.25975 46.1968 10.1448 47.5538 11.2786 48.6868C12.4125 49.8198 13.7702 50.7038 15.2651 51.2824C17.0086 51.9654 18.856 52.3458 20.7276 52.4074C23.1351 52.5149 23.8976 52.5474 30.0026 52.5474C36.1076 52.5474 36.8901 52.5474 39.2776 52.4074C41.1454 52.3706 42.9935 52.0164 44.7426 51.3599C46.2368 50.7801 47.5938 49.8953 48.7272 48.762C49.8605 47.6287 50.7453 46.2716 51.3251 44.7774C51.9826 43.0274 52.3351 41.1824 52.3726 39.3099C52.4801 36.9049 52.5126 36.1424 52.5126 30.0349C52.5076 23.9299 52.5076 23.1549 52.3676 20.7624ZM29.9851 41.5049C23.6001 41.5049 18.4276 36.3324 18.4276 29.9474C18.4276 23.5624 23.6001 18.3899 29.9851 18.3899C33.0503 18.3899 35.99 19.6076 38.1574 21.775C40.3249 23.9425 41.5426 26.8822 41.5426 29.9474C41.5426 33.0126 40.3249 35.9523 38.1574 38.1198C35.99 40.2872 33.0503 41.5049 29.9851 41.5049ZM42.0026 20.6574C41.6486 20.6577 41.298 20.5882 40.9708 20.4529C40.6437 20.3176 40.3465 20.1191 40.0962 19.8688C39.8459 19.6185 39.6473 19.3212 39.512 18.9941C39.3767 18.667 39.3072 18.3164 39.3076 17.9624C39.3076 17.6086 39.3772 17.2584 39.5126 16.9315C39.648 16.6047 39.8464 16.3078 40.0965 16.0576C40.3467 15.8075 40.6436 15.6091 40.9705 15.4737C41.2973 15.3383 41.6476 15.2686 42.0013 15.2686C42.3551 15.2686 42.7053 15.3383 43.0322 15.4737C43.359 15.6091 43.6559 15.8075 43.9061 16.0576C44.1562 16.3078 44.3546 16.6047 44.49 16.9315C44.6254 17.2584 44.6951 17.6086 44.6951 17.9624C44.6951 19.4524 43.4901 20.6574 42.0026 20.6574Z" fill="#6A6464"/>
<path d="M29.985 37.4549C34.1313 37.4549 37.4925 34.0937 37.4925 29.9474C37.4925 25.8012 34.1313 22.4399 29.985 22.4399C25.8388 22.4399 22.4775 25.8012 22.4775 29.9474C22.4775 34.0937 25.8388 37.4549 29.985 37.4549Z" fill="#6A6464"/>
</svg>
