<svg width="60" height="60" viewBox="0 0 60 60" fill="none" xmlns="http://www.w3.org/2000/svg">
<path d="M50 7.5H10C9.33696 7.5 8.70107 7.76339 8.23223 8.23223C7.76339 8.70107 7.5 9.33696 7.5 10V50C7.5 50.663 7.76339 51.2989 8.23223 51.7678C8.70107 52.2366 9.33696 52.5 10 52.5H31.5375V35.1H25.6925V28.2875H31.5375V23.2875C31.5375 17.475 35.0875 14.3075 40.2875 14.3075C42.035 14.3025 43.785 14.3925 45.525 14.575V20.625H41.9375C39.1175 20.625 38.5675 21.97 38.5675 23.9375V28.275H45.31L44.435 35.0875H38.565V52.5H50C50.663 52.5 51.2989 52.2366 51.7678 51.7678C52.2366 51.2989 52.5 50.663 52.5 50V10C52.5 9.33696 52.2366 8.70107 51.7678 8.23223C51.2989 7.76339 50.663 7.5 50 7.5Z" fill="#6A6464"/>
</svg>
