<svg width="60" height="60" viewBox="0 0 60 60" fill="none" xmlns="http://www.w3.org/2000/svg">
<path d="M53.9825 18.0075C53.6977 16.951 53.1413 15.9875 52.3684 15.2129C51.5956 14.4383 50.6333 13.8797 49.5775 13.5925C45.6625 12.5175 30 12.5 30 12.5C30 12.5 14.34 12.4825 10.4225 13.51C9.36731 13.8104 8.40705 14.377 7.63391 15.1554C6.86077 15.9337 6.30071 16.8978 6.0075 17.955C4.975 21.87 4.965 29.99 4.965 29.99C4.965 29.99 4.955 38.15 5.98 42.025C6.555 44.1675 8.2425 45.86 10.3875 46.4375C14.3425 47.5125 29.9625 47.53 29.9625 47.53C29.9625 47.53 45.625 47.5475 49.54 46.5225C50.5962 46.2359 51.5594 45.6785 52.3341 44.9055C53.1089 44.1325 53.6685 43.1706 53.9575 42.115C54.9925 38.2025 55 30.085 55 30.085C55 30.085 55.05 21.9225 53.9825 18.0075ZM24.99 37.5125L25.0025 22.5125L38.02 30.025L24.99 37.5125Z" fill="#6A6464"/>
</svg>
