<svg width="52" height="52" viewBox="0 0 52 52" fill="none" xmlns="http://www.w3.org/2000/svg">
<path d="M43.3332 8.66666H8.66658C7.51731 8.66666 6.41511 9.1232 5.60246 9.93586C4.7898 10.7485 4.33325 11.8507 4.33325 13V39C4.33325 40.1493 4.7898 41.2515 5.60246 42.0641C6.41511 42.8768 7.51731 43.3333 8.66658 43.3333H43.3332C44.4825 43.3333 45.5847 42.8768 46.3974 42.0641C47.21 41.2515 47.6666 40.1493 47.6666 39V13C47.6666 11.8507 47.21 10.7485 46.3974 9.93586C45.5847 9.1232 44.4825 8.66666 43.3332 8.66666V8.66666ZM43.3332 18.85L25.9999 30.407L8.66658 18.85V13.6435L25.9999 25.1983L43.3332 13.6435V18.85Z" fill="#931D1D"/>
</svg>
