<svg width="60" height="60" viewBox="0 0 60 60" fill="none" xmlns="http://www.w3.org/2000/svg">
<path d="M50 17.5V12.5C50 9.7425 47.7575 7.5 45 7.5H12.5C8.365 7.5 5 10.865 5 15V45C5 50.5025 9.485 52.5 12.5 52.5H50C52.7575 52.5 55 50.2575 55 47.5V22.5C55 19.7425 52.7575 17.5 50 17.5ZM45 40H40V30H45V40ZM12.5 17.5C11.8563 17.4712 11.2485 17.1952 10.8032 16.7295C10.3579 16.2639 10.1093 15.6443 10.1093 15C10.1093 14.3557 10.3579 13.7361 10.8032 13.2705C11.2485 12.8048 11.8563 12.5288 12.5 12.5H45V17.5H12.5Z" fill="#6A6464"/>
</svg>
