<svg width="60" height="60" viewBox="0 0 60 60" fill="none" xmlns="http://www.w3.org/2000/svg">
<path d="M54.9825 19.8749C54.9785 19.6945 54.9542 19.515 54.91 19.3399C54.8925 19.2774 54.8575 19.2174 54.835 19.1549C54.7825 19.0124 54.735 18.8724 54.66 18.7424C54.62 18.6749 54.565 18.6199 54.5175 18.5549C54.4375 18.4424 54.36 18.3274 54.2625 18.2299C54.205 18.1749 54.13 18.1299 54.0675 18.0774C53.97 17.9974 53.88 17.9099 53.7675 17.8424C53.7575 17.8349 53.745 17.8349 53.7325 17.8274L53.7125 17.8124L31.265 5.33744C30.8941 5.13176 30.477 5.02363 30.0528 5.02319C29.6287 5.02276 29.2114 5.13003 28.84 5.33494L6.2875 17.8099C6.28 17.8174 6.2725 17.8274 6.26 17.8349L6.235 17.8449C6.1475 17.8949 6.0825 17.9674 6 18.0274C5.91 18.0949 5.815 18.1549 5.735 18.2324C5.66 18.3099 5.6025 18.3999 5.5375 18.4874C5.47 18.5749 5.395 18.6524 5.34 18.7474C5.275 18.8549 5.24 18.9774 5.1925 19.0949C5.1575 19.1774 5.1125 19.2549 5.09 19.3449C5.04682 19.5168 5.02251 19.6928 5.0175 19.8699C5.015 19.9124 5 19.9499 5 19.9949V39.9999C5 40.9074 5.4925 41.7449 6.2875 42.1849L28.7325 54.6524L28.735 54.6549L28.74 54.6574L28.79 54.6849C28.8975 54.7449 29.015 54.7774 29.1275 54.8199C29.2075 54.8524 29.285 54.8949 29.37 54.9174C29.7849 55.0244 30.2201 55.0244 30.635 54.9174C30.7175 54.8949 30.795 54.8524 30.8775 54.8199C30.99 54.7774 31.1075 54.7474 31.215 54.6849L31.265 54.6574L31.27 54.6549L31.2725 54.6524L53.7175 42.1849C54.5075 41.7449 55 40.9074 55 39.9999V19.9949C55 19.9524 54.985 19.9174 54.9825 19.8749ZM29.93 29.6799L12.645 20.0124L19.55 16.1924L36.635 25.9549L29.93 29.6799ZM30.05 10.3824L47.3525 19.9999L41.7425 23.1174L24.6675 13.3599L30.05 10.3824ZM32.5 48.2524L32.505 34.0549L40 29.8599V37.4999L45 34.9999V27.0624L50 24.2649V38.5274L32.5 48.2524Z" fill="#931D1D"/>
</svg>
