<svg width="35" height="80" viewBox="0 0 35 80" fill="none" xmlns="http://www.w3.org/2000/svg">
<path fill-rule="evenodd" clip-rule="evenodd" d="M12.9896 1.12671C12.7947 1.22203 12.5625 1.42039 12.4304 1.60408L12.2046 1.91829L12.1819 7.00412C12.1577 12.411 12.1594 12.4412 12.522 12.858C12.8443 13.2286 13.2244 13.3549 14.0219 13.3568L14.715 13.3584V23.6396V33.9208L14.293 34.0121C7.8177 35.4138 3.79057 41.2906 5.35869 47.0501C5.78138 48.6025 5.8154 48.8061 5.81549 49.7816C5.81558 51.5868 5.22384 53.1941 4.05773 54.5556C1.12815 57.9763 0.00272187 60.6931 3.86386e-06 64.3509C-0.00858855 75.9979 14.3153 83.2972 26.0682 77.635C35.3814 73.1483 37.8643 62.562 31.3599 55.0729C29.7725 53.2452 29.179 51.7943 29.1809 49.7454C29.1817 48.8187 29.2349 48.5064 29.651 46.9858C31.2061 41.3035 27.1271 35.3979 20.6913 34.0135L20.2605 33.9208V23.6396V13.3584H20.9754C21.959 13.3584 22.41 13.1255 22.6924 12.4718C22.8673 12.0668 22.8673 2.25522 22.6924 1.85019C22.3055 0.954549 22.3795 0.9671 17.4849 0.965234L13.323 0.963623L12.9896 1.12671ZM18.6493 47.8335C20.7911 48.3321 22.294 50.1978 22.2913 52.3548C22.2861 56.446 17.2396 58.521 14.1651 55.696C10.6309 52.4485 13.8944 46.7265 18.6493 47.8335ZM22.2088 61.7777V62.865H17.4878H12.7667V61.7777V60.6905H17.4878H22.2088V61.7777Z" fill="#F0E3E3"/>
</svg>
