<svg id="svg" version="1.1" xmlns="http://www.w3.org/2000/svg" xmlns:xlink="http://www.w3.org/1999/xlink" width="400" height="400" viewBox="0, 0, 400,400"><g id="svgg"><path id="path0" d="M188.200 81.205 C 178.715 82.268,177.753 82.448,169.000 84.807 C 141.160 92.309,116.961 110.131,100.846 135.000 C 99.848 136.540,98.590 138.610,98.051 139.600 C 97.513 140.590,96.654 142.120,96.143 143.000 C 95.632 143.880,95.049 144.960,94.849 145.400 C 94.648 145.840,93.743 147.769,92.837 149.686 C 81.943 172.745,79.110 200.623,85.083 226.000 C 87.467 236.127,90.028 243.224,94.653 252.517 C 97.719 258.677,97.758 259.787,95.200 267.790 C 94.987 268.456,94.160 271.430,93.362 274.400 C 92.564 277.370,91.562 281.060,91.136 282.600 C 90.710 284.140,90.197 286.030,89.997 286.800 C 89.479 288.795,88.085 293.851,87.404 296.200 C 87.086 297.300,86.184 300.630,85.401 303.600 C 83.983 308.977,83.429 310.980,82.183 315.240 C 80.948 319.466,81.452 319.921,86.000 318.683 C 87.950 318.152,91.335 317.258,102.000 314.457 C 103.650 314.024,107.160 313.096,109.800 312.396 C 112.440 311.696,116.220 310.706,118.200 310.196 C 120.180 309.686,123.150 308.909,124.800 308.469 C 126.450 308.029,129.960 307.104,132.600 306.414 C 135.240 305.723,138.288 304.898,139.373 304.579 C 142.763 303.584,144.337 303.810,148.870 305.946 C 157.067 309.808,160.714 311.178,170.200 313.958 C 185.604 318.471,209.211 318.981,225.800 315.159 C 229.071 314.405,239.256 311.566,239.954 311.213 C 240.309 311.033,242.501 310.155,244.824 309.262 C 248.739 307.757,257.414 303.548,260.200 301.801 C 275.969 291.917,285.514 283.239,295.840 269.400 C 298.082 266.395,299.242 264.722,300.195 263.119 C 300.418 262.744,301.376 261.165,302.323 259.610 C 304.489 256.056,309.600 245.883,309.600 245.126 C 309.600 244.815,309.744 244.389,309.920 244.180 C 310.564 243.416,313.947 233.893,314.816 230.400 C 316.763 222.570,317.629 217.954,318.454 211.000 C 318.981 206.556,318.679 186.372,318.036 183.000 C 316.681 175.905,315.864 171.972,315.334 170.000 C 314.547 167.068,312.117 159.377,311.385 157.500 C 311.063 156.675,310.499 155.235,310.132 154.300 C 309.398 152.431,303.878 141.070,303.092 139.811 C 302.821 139.377,301.932 137.937,301.115 136.611 C 300.298 135.285,299.443 133.983,299.215 133.717 C 298.987 133.451,298.800 133.137,298.800 133.018 C 298.800 132.900,297.873 131.497,296.741 129.901 C 294.897 127.304,294.027 126.191,290.406 121.804 C 287.481 118.259,277.165 108.530,272.994 105.381 C 268.462 101.961,266.836 100.840,261.600 97.531 C 258.973 95.871,250.431 91.548,247.027 90.156 C 245.692 89.611,244.240 88.997,243.800 88.793 C 242.393 88.140,239.535 87.199,234.200 85.632 C 218.083 80.898,203.473 79.492,188.200 81.205 M209.400 101.403 C 216.029 102.160,224.884 103.804,227.600 104.781 C 228.150 104.979,229.950 105.526,231.600 105.996 C 234.879 106.932,235.661 107.217,241.000 109.424 C 256.944 116.016,269.004 125.546,279.831 140.109 C 283.151 144.575,287.861 153.052,289.992 158.400 C 290.474 159.610,291.038 160.920,291.245 161.312 C 291.627 162.034,294.388 170.544,295.426 174.200 C 296.117 176.632,297.365 182.661,298.076 187.000 C 298.782 191.308,298.780 208.308,298.073 212.600 C 296.865 219.937,295.850 224.189,293.777 230.600 C 285.398 256.505,265.256 278.192,238.600 290.009 C 234.820 291.685,226.938 294.310,224.629 294.662 C 223.733 294.798,222.717 295.054,222.370 295.231 C 218.357 297.281,196.524 298.161,186.800 296.666 C 173.300 294.590,160.866 290.267,150.642 284.095 C 149.135 283.186,147.618 282.610,146.442 282.503 C 144.492 282.324,144.323 282.358,136.200 284.584 C 133.340 285.368,130.100 286.196,129.000 286.425 C 127.900 286.654,126.560 287.024,126.023 287.247 C 125.486 287.470,124.316 287.802,123.423 287.984 C 122.530 288.166,119.421 288.944,116.514 289.712 C 109.361 291.603,109.457 291.691,111.397 285.000 C 111.716 283.900,112.615 280.570,113.395 277.600 C 114.176 274.630,115.066 271.390,115.373 270.400 C 119.392 257.463,119.523 255.466,116.666 250.667 C 115.639 248.944,114.800 247.467,114.800 247.385 C 114.800 247.302,114.296 246.372,113.679 245.318 C 113.062 244.263,111.790 241.600,110.851 239.400 C 109.912 237.200,108.982 235.040,108.783 234.600 C 107.290 231.294,104.884 222.662,103.431 215.400 C 101.561 206.050,101.644 190.230,103.614 180.600 C 104.290 177.294,106.682 168.504,107.370 166.800 C 107.681 166.030,108.350 164.320,108.857 163.000 C 110.742 158.096,116.754 147.020,119.278 143.800 C 130.679 129.257,139.637 120.493,148.726 114.992 C 149.097 114.767,150.210 114.062,151.200 113.424 C 157.919 109.094,170.802 104.051,179.400 102.386 C 187.586 100.800,200.436 100.380,209.400 101.403 M158.800 144.254 C 152.676 145.416,148.377 148.962,144.318 156.200 C 137.917 167.612,139.211 183.013,147.710 196.582 C 156.765 211.037,168.952 225.230,179.326 233.400 C 180.164 234.060,181.064 234.780,181.325 235.000 C 186.960 239.745,198.035 246.327,206.600 250.019 C 230.093 260.148,251.220 256.856,258.066 242.000 C 259.873 238.078,260.053 237.334,260.271 232.839 C 260.590 226.293,261.600 227.158,244.000 218.900 C 242.130 218.023,239.430 216.756,238.000 216.085 C 231.320 212.952,229.672 212.891,227.498 215.695 C 217.493 228.606,216.543 229.432,212.847 228.444 C 211.048 227.962,203.264 224.243,201.000 222.783 C 200.340 222.357,199.530 221.883,199.200 221.729 C 191.465 218.125,176.059 201.938,171.728 192.866 C 170.453 190.193,170.836 189.115,174.450 185.200 C 181.898 177.133,182.053 175.721,176.793 163.800 C 176.599 163.360,175.699 161.200,174.793 159.000 C 173.887 156.800,172.888 154.433,172.573 153.740 C 172.258 153.046,172.000 152.360,172.000 152.215 C 172.000 150.964,168.904 145.882,167.681 145.126 C 166.260 144.248,161.365 143.767,158.800 144.254 " stroke="none" fill="#f9fbf9" fill-rule="evenodd"></path><path id="path1" d="M175.600 0.400 C 175.600 0.644,173.750 0.800,170.849 0.800 C 167.114 0.800,165.991 0.928,165.600 1.400 C 165.241 1.833,164.289 2.000,162.180 2.000 C 160.115 2.000,159.081 2.176,158.657 2.600 C 158.284 2.973,157.302 3.200,156.061 3.200 C 153.693 3.200,152.800 3.485,152.800 4.243 C 152.800 4.662,152.156 4.800,150.200 4.800 C 148.156 4.800,147.600 4.928,147.600 5.400 C 147.600 5.859,147.094 6.000,145.449 6.000 C 144.025 6.000,143.130 6.203,142.800 6.600 C 142.514 6.945,141.642 7.200,140.751 7.200 C 139.733 7.200,138.925 7.475,138.400 8.000 C 137.865 8.535,137.067 8.800,135.987 8.800 C 134.923 8.800,134.297 9.004,134.145 9.400 C 134.004 9.767,133.398 10.000,132.586 10.000 C 131.855 10.000,130.987 10.270,130.657 10.600 C 130.327 10.930,129.596 11.200,129.032 11.200 C 128.440 11.200,127.796 11.538,127.507 12.000 C 127.135 12.597,126.574 12.800,125.304 12.800 C 124.056 12.800,123.600 12.961,123.600 13.400 C 123.600 13.819,123.178 14.000,122.200 14.000 C 121.222 14.000,120.800 14.181,120.800 14.600 C 120.800 15.004,120.396 15.200,119.563 15.200 C 118.662 15.200,118.268 15.417,118.116 16.000 C 117.952 16.628,117.570 16.800,116.341 16.800 C 115.318 16.800,114.695 17.008,114.545 17.400 C 114.413 17.744,113.815 18.000,113.145 18.000 C 112.501 18.000,111.878 18.252,111.760 18.561 C 111.641 18.869,110.927 19.237,110.172 19.379 C 109.356 19.532,108.800 19.872,108.800 20.218 C 108.800 20.598,108.383 20.800,107.600 20.800 C 106.940 20.800,106.400 20.989,106.400 21.221 C 106.400 21.452,105.860 21.830,105.200 22.060 C 104.540 22.290,104.000 22.641,104.000 22.839 C 104.000 23.038,103.623 23.200,103.163 23.200 C 102.662 23.200,102.241 23.521,102.116 24.000 C 101.967 24.569,101.570 24.800,100.741 24.800 C 100.073 24.800,99.476 25.057,99.345 25.400 C 99.218 25.730,98.693 26.000,98.177 26.000 C 97.662 26.000,97.096 26.239,96.920 26.530 C 96.744 26.822,96.285 27.176,95.900 27.318 C 95.515 27.459,95.200 27.851,95.200 28.187 C 95.200 28.601,94.811 28.800,94.000 28.800 C 93.200 28.800,92.800 29.000,92.800 29.400 C 92.800 29.775,92.421 30.000,91.787 30.000 C 91.231 30.000,90.671 30.270,90.545 30.600 C 90.418 30.930,90.047 31.200,89.720 31.200 C 89.393 31.200,89.031 31.560,88.916 32.000 C 88.770 32.558,88.370 32.800,87.596 32.800 C 86.978 32.800,86.384 33.066,86.255 33.400 C 86.129 33.730,85.749 34.000,85.413 34.000 C 85.076 34.000,84.800 34.270,84.800 34.600 C 84.800 34.930,84.513 35.200,84.163 35.200 C 83.812 35.200,83.431 35.560,83.316 36.000 C 83.168 36.567,82.770 36.800,81.953 36.800 C 81.195 36.800,80.800 37.005,80.800 37.400 C 80.800 37.730,80.575 38.003,80.300 38.007 C 79.690 38.015,78.000 39.742,78.000 40.356 C 78.000 40.600,77.479 40.800,76.843 40.800 C 76.183 40.800,75.587 41.058,75.455 41.400 C 75.329 41.730,74.949 42.000,74.613 42.000 C 74.276 42.000,74.000 42.270,74.000 42.600 C 74.000 42.930,73.730 43.200,73.400 43.200 C 73.067 43.200,72.800 43.556,72.800 44.000 C 72.800 44.533,72.533 44.800,72.000 44.800 C 71.556 44.800,71.200 45.067,71.200 45.400 C 71.200 45.756,70.833 46.000,70.298 46.000 C 69.756 46.000,68.930 46.559,68.228 47.400 C 67.586 48.170,66.822 48.800,66.530 48.800 C 66.239 48.800,66.000 49.070,66.000 49.400 C 66.000 49.730,65.730 50.000,65.400 50.000 C 65.070 50.000,64.800 50.249,64.800 50.553 C 64.800 50.858,64.440 51.201,64.000 51.316 C 63.560 51.431,63.200 51.812,63.200 52.163 C 63.200 52.513,62.930 52.800,62.600 52.800 C 62.270 52.800,62.000 53.070,62.000 53.400 C 62.000 53.730,61.730 54.000,61.400 54.000 C 61.070 54.000,60.800 54.249,60.800 54.553 C 60.800 54.858,60.440 55.201,60.000 55.316 C 59.560 55.431,59.200 55.812,59.200 56.163 C 59.200 56.513,58.930 56.800,58.600 56.800 C 58.270 56.800,58.000 57.070,58.000 57.400 C 58.000 57.730,57.730 58.000,57.400 58.000 C 57.070 58.000,56.800 58.249,56.800 58.553 C 56.800 58.858,56.440 59.201,56.000 59.316 C 55.560 59.431,55.200 59.812,55.200 60.163 C 55.200 60.513,54.930 60.800,54.600 60.800 C 54.270 60.800,54.000 61.070,54.000 61.400 C 54.000 61.730,53.730 62.000,53.400 62.000 C 53.070 62.000,52.800 62.249,52.800 62.553 C 52.800 62.858,52.440 63.201,52.000 63.316 C 51.560 63.431,51.200 63.812,51.200 64.163 C 51.200 64.513,50.930 64.800,50.600 64.800 C 50.270 64.800,50.000 65.070,50.000 65.400 C 50.000 65.730,49.730 66.000,49.400 66.000 C 49.070 66.000,48.800 66.276,48.800 66.613 C 48.800 66.949,48.530 67.329,48.200 67.455 C 47.870 67.582,47.600 67.896,47.600 68.154 C 47.600 68.411,47.240 68.930,46.800 69.307 C 46.360 69.684,46.000 70.264,46.000 70.596 C 46.000 70.928,45.730 71.200,45.400 71.200 C 45.067 71.200,44.800 71.556,44.800 72.000 C 44.800 72.533,44.533 72.800,44.000 72.800 C 43.560 72.800,43.200 73.051,43.200 73.357 C 43.200 73.664,42.930 74.018,42.600 74.145 C 42.270 74.271,42.000 74.631,42.000 74.945 C 42.000 75.258,41.730 75.618,41.400 75.745 C 41.070 75.871,40.800 76.431,40.800 76.987 C 40.800 77.544,40.600 78.000,40.356 78.000 C 39.764 78.000,38.016 79.680,38.007 80.257 C 38.003 80.509,37.730 80.818,37.400 80.945 C 37.070 81.071,36.800 81.610,36.800 82.141 C 36.800 82.770,36.521 83.180,36.000 83.316 C 35.560 83.431,35.200 83.812,35.200 84.163 C 35.200 84.513,34.930 84.800,34.600 84.800 C 34.200 84.800,34.000 85.200,34.000 86.000 C 34.000 86.800,33.800 87.200,33.400 87.200 C 33.067 87.200,32.800 87.556,32.800 88.000 C 32.800 88.450,32.533 88.800,32.190 88.800 C 31.835 88.800,31.482 89.291,31.345 89.974 C 31.216 90.620,30.860 91.245,30.555 91.362 C 30.250 91.479,30.000 91.851,30.000 92.187 C 30.000 92.524,29.730 92.800,29.400 92.800 C 29.000 92.800,28.800 93.200,28.800 94.000 C 28.800 94.793,28.599 95.200,28.208 95.200 C 27.882 95.200,27.504 95.643,27.368 96.184 C 27.233 96.725,26.869 97.377,26.561 97.633 C 26.252 97.889,26.000 98.436,26.000 98.849 C 26.000 99.262,25.730 99.600,25.400 99.600 C 25.000 99.600,24.800 100.000,24.800 100.800 C 24.800 101.559,24.595 102.000,24.243 102.000 C 23.631 102.000,23.200 102.841,23.200 104.033 C 23.200 104.455,22.930 104.800,22.600 104.800 C 22.205 104.800,22.000 105.195,22.000 105.957 C 22.000 106.617,21.742 107.213,21.400 107.345 C 21.057 107.476,20.800 108.073,20.800 108.741 C 20.800 109.570,20.569 109.967,20.000 110.116 C 19.417 110.268,19.200 110.662,19.200 111.563 C 19.200 112.396,19.004 112.800,18.600 112.800 C 18.205 112.800,18.000 113.195,18.000 113.957 C 18.000 114.617,17.742 115.213,17.400 115.345 C 17.049 115.479,16.800 116.079,16.800 116.787 C 16.800 117.568,16.598 118.000,16.232 118.000 C 15.915 118.000,15.538 118.576,15.381 119.300 C 15.225 120.015,14.851 120.955,14.549 121.389 C 14.247 121.823,14.000 122.768,14.000 123.489 C 14.000 124.388,13.811 124.800,13.400 124.800 C 13.000 124.800,12.800 125.200,12.800 126.000 C 12.800 126.667,12.444 127.556,12.000 128.000 C 11.505 128.495,11.200 129.333,11.200 130.200 C 11.200 131.178,11.019 131.600,10.600 131.600 C 10.155 131.600,10.000 132.068,10.000 133.413 C 10.000 134.655,9.811 135.298,9.400 135.455 C 8.994 135.611,8.800 136.248,8.800 137.423 C 8.800 138.587,8.592 139.276,8.171 139.512 C 7.817 139.710,7.441 140.638,7.311 141.632 C 7.184 142.604,6.895 143.521,6.668 143.668 C 6.441 143.816,6.176 145.031,6.080 146.368 C 5.956 148.084,5.741 148.800,5.352 148.800 C 4.943 148.800,4.800 149.435,4.800 151.256 C 4.800 153.112,4.633 153.834,4.116 154.212 C 3.608 154.583,3.389 155.473,3.269 157.656 C 3.162 159.601,2.919 160.709,2.554 160.920 C 2.160 161.148,2.000 162.107,2.000 164.248 C 2.000 166.390,1.827 167.430,1.400 167.857 C 0.931 168.326,0.800 169.543,0.800 173.429 C 0.800 176.476,0.645 178.400,0.400 178.400 C 0.138 178.400,0.000 185.867,0.000 200.000 C 0.000 214.133,0.138 221.600,0.400 221.600 C 0.645 221.600,0.800 223.517,0.800 226.551 C 0.800 230.464,0.926 231.606,1.400 232.000 C 1.840 232.365,2.000 233.334,2.000 235.629 C 2.000 237.875,2.157 238.851,2.554 239.080 C 2.919 239.291,3.162 240.399,3.269 242.344 C 3.389 244.527,3.608 245.417,4.116 245.788 C 4.633 246.166,4.800 246.888,4.800 248.744 C 4.800 250.565,4.943 251.200,5.352 251.200 C 5.741 251.200,5.956 251.916,6.080 253.632 C 6.176 254.969,6.441 256.184,6.668 256.332 C 6.895 256.479,7.184 257.396,7.311 258.368 C 7.441 259.362,7.817 260.290,8.171 260.488 C 8.592 260.724,8.800 261.413,8.800 262.577 C 8.800 263.752,8.994 264.389,9.400 264.545 C 9.811 264.702,10.000 265.345,10.000 266.587 C 10.000 267.932,10.155 268.400,10.600 268.400 C 11.019 268.400,11.200 268.822,11.200 269.800 C 11.200 270.667,11.505 271.505,12.000 272.000 C 12.444 272.444,12.800 273.333,12.800 274.000 C 12.800 274.800,13.000 275.200,13.400 275.200 C 13.811 275.200,14.000 275.612,14.000 276.511 C 14.000 277.232,14.247 278.177,14.549 278.611 C 14.851 279.045,15.225 279.985,15.381 280.700 C 15.538 281.424,15.915 282.000,16.232 282.000 C 16.598 282.000,16.800 282.432,16.800 283.213 C 16.800 283.921,17.049 284.521,17.400 284.655 C 17.742 284.787,18.000 285.383,18.000 286.043 C 18.000 286.805,18.205 287.200,18.600 287.200 C 19.004 287.200,19.200 287.604,19.200 288.437 C 19.200 289.338,19.417 289.732,20.000 289.884 C 20.569 290.033,20.800 290.430,20.800 291.259 C 20.800 291.927,21.057 292.524,21.400 292.655 C 21.742 292.787,22.000 293.383,22.000 294.043 C 22.000 294.805,22.205 295.200,22.600 295.200 C 22.930 295.200,23.200 295.545,23.200 295.967 C 23.200 297.159,23.631 298.000,24.243 298.000 C 24.595 298.000,24.800 298.441,24.800 299.200 C 24.800 300.000,25.000 300.400,25.400 300.400 C 25.733 300.400,26.000 300.756,26.000 301.200 C 26.000 301.644,26.267 302.000,26.600 302.000 C 26.930 302.000,27.200 302.345,27.200 302.767 C 27.200 303.959,27.631 304.800,28.243 304.800 C 28.595 304.800,28.800 305.241,28.800 306.000 C 28.800 306.800,29.000 307.200,29.400 307.200 C 29.730 307.200,30.000 307.476,30.000 307.813 C 30.000 308.149,30.250 308.521,30.555 308.638 C 30.860 308.755,31.216 309.380,31.345 310.026 C 31.482 310.709,31.835 311.200,32.190 311.200 C 32.533 311.200,32.800 311.550,32.800 312.000 C 32.800 312.444,33.067 312.800,33.400 312.800 C 33.775 312.800,34.000 313.179,34.000 313.813 C 34.000 314.369,34.270 314.929,34.600 315.055 C 34.930 315.182,35.200 315.553,35.200 315.880 C 35.200 316.207,35.560 316.569,36.000 316.684 C 36.521 316.820,36.800 317.230,36.800 317.859 C 36.800 318.390,37.070 318.929,37.400 319.055 C 37.730 319.182,38.003 319.491,38.007 319.743 C 38.016 320.320,39.764 322.000,40.356 322.000 C 40.600 322.000,40.800 322.540,40.800 323.200 C 40.800 324.000,41.000 324.400,41.400 324.400 C 41.730 324.400,42.003 324.625,42.007 324.900 C 42.015 325.510,43.742 327.200,44.356 327.200 C 44.600 327.200,44.800 327.560,44.800 328.000 C 44.800 328.444,45.067 328.800,45.400 328.800 C 45.730 328.800,46.000 329.042,46.000 329.338 C 46.000 329.634,46.360 330.202,46.800 330.600 C 47.240 330.998,47.600 331.547,47.600 331.819 C 47.600 332.092,47.870 332.418,48.200 332.545 C 48.530 332.671,48.800 333.051,48.800 333.387 C 48.800 333.724,49.070 334.000,49.400 334.000 C 49.730 334.000,50.000 334.270,50.000 334.600 C 50.000 334.930,50.270 335.200,50.600 335.200 C 50.930 335.200,51.200 335.487,51.200 335.837 C 51.200 336.188,51.560 336.569,52.000 336.684 C 52.440 336.799,52.800 337.142,52.800 337.447 C 52.800 337.751,53.070 338.000,53.400 338.000 C 53.730 338.000,54.000 338.270,54.000 338.600 C 54.000 338.930,54.270 339.200,54.600 339.200 C 54.930 339.200,55.200 339.487,55.200 339.837 C 55.200 340.188,55.560 340.569,56.000 340.684 C 56.440 340.799,56.800 341.142,56.800 341.447 C 56.800 341.751,57.070 342.000,57.400 342.000 C 57.730 342.000,58.000 342.270,58.000 342.600 C 58.000 342.930,58.270 343.200,58.600 343.200 C 58.930 343.200,59.200 343.487,59.200 343.837 C 59.200 344.188,59.560 344.569,60.000 344.684 C 60.440 344.799,60.800 345.142,60.800 345.447 C 60.800 345.751,61.070 346.000,61.400 346.000 C 61.730 346.000,62.000 346.270,62.000 346.600 C 62.000 346.930,62.270 347.200,62.600 347.200 C 62.930 347.200,63.200 347.487,63.200 347.837 C 63.200 348.188,63.560 348.569,64.000 348.684 C 64.440 348.799,64.800 349.142,64.800 349.447 C 64.800 349.751,65.070 350.000,65.400 350.000 C 65.730 350.000,66.000 350.270,66.000 350.600 C 66.000 350.930,66.226 351.200,66.502 351.200 C 66.778 351.200,67.530 351.830,68.172 352.600 C 68.892 353.464,69.695 354.000,70.270 354.000 C 70.830 354.000,71.200 354.239,71.200 354.600 C 71.200 354.933,71.556 355.200,72.000 355.200 C 72.533 355.200,72.800 355.467,72.800 356.000 C 72.800 356.444,73.067 356.800,73.400 356.800 C 73.730 356.800,74.000 357.070,74.000 357.400 C 74.000 357.733,74.356 358.000,74.800 358.000 C 75.244 358.000,75.600 358.267,75.600 358.600 C 75.600 359.000,76.000 359.200,76.800 359.200 C 77.733 359.200,78.000 359.378,78.000 360.000 C 78.000 360.440,78.251 360.800,78.557 360.800 C 78.864 360.800,79.218 361.070,79.345 361.400 C 79.471 361.730,79.851 362.000,80.187 362.000 C 80.524 362.000,80.800 362.270,80.800 362.600 C 80.800 363.000,81.200 363.200,82.000 363.200 C 82.831 363.200,83.200 363.396,83.200 363.837 C 83.200 364.188,83.560 364.569,84.000 364.684 C 84.440 364.799,84.800 365.142,84.800 365.447 C 84.800 365.751,85.141 366.000,85.557 366.000 C 85.974 366.000,86.418 366.270,86.545 366.600 C 86.671 366.930,87.231 367.200,87.787 367.200 C 88.430 367.200,88.800 367.424,88.800 367.813 C 88.800 368.149,89.115 368.541,89.500 368.682 C 89.885 368.824,90.344 369.178,90.520 369.470 C 90.696 369.761,91.281 370.000,91.820 370.000 C 92.424 370.000,92.800 370.230,92.800 370.600 C 92.800 371.000,93.200 371.200,94.000 371.200 C 94.811 371.200,95.200 371.399,95.200 371.813 C 95.200 372.149,95.515 372.541,95.900 372.682 C 96.285 372.824,96.744 373.178,96.920 373.470 C 97.096 373.761,97.662 374.000,98.177 374.000 C 98.693 374.000,99.218 374.270,99.345 374.600 C 99.476 374.943,100.073 375.200,100.741 375.200 C 101.570 375.200,101.967 375.431,102.116 376.000 C 102.236 376.459,102.662 376.800,103.114 376.800 C 103.547 376.800,104.126 377.070,104.400 377.400 C 104.674 377.730,105.152 378.000,105.462 378.000 C 105.771 378.000,106.129 378.270,106.255 378.600 C 106.387 378.942,106.983 379.200,107.643 379.200 C 108.389 379.200,108.800 379.407,108.800 379.782 C 108.800 380.128,109.356 380.468,110.172 380.621 C 110.927 380.763,111.641 381.131,111.760 381.439 C 111.878 381.748,112.501 382.000,113.145 382.000 C 113.815 382.000,114.413 382.256,114.545 382.600 C 114.695 382.992,115.318 383.200,116.341 383.200 C 117.570 383.200,117.952 383.372,118.116 384.000 C 118.268 384.583,118.662 384.800,119.563 384.800 C 120.396 384.800,120.800 384.996,120.800 385.400 C 120.800 385.819,121.222 386.000,122.200 386.000 C 123.178 386.000,123.600 386.181,123.600 386.600 C 123.600 387.039,124.056 387.200,125.304 387.200 C 126.574 387.200,127.135 387.403,127.507 388.000 C 127.819 388.500,128.440 388.800,129.161 388.800 C 129.817 388.800,130.414 389.059,130.545 389.400 C 130.695 389.792,131.318 390.000,132.345 390.000 C 133.371 390.000,133.994 390.208,134.145 390.600 C 134.297 390.996,134.923 391.200,135.987 391.200 C 137.067 391.200,137.865 391.465,138.400 392.000 C 138.909 392.509,139.746 392.805,140.700 392.813 C 141.525 392.820,142.549 393.090,142.976 393.413 C 143.409 393.740,144.604 394.000,145.676 394.000 C 147.120 394.000,147.600 394.150,147.600 394.600 C 147.600 395.072,148.156 395.200,150.200 395.200 C 152.156 395.200,152.800 395.338,152.800 395.757 C 152.800 396.524,153.696 396.800,156.190 396.800 C 157.709 396.800,158.380 396.971,158.545 397.400 C 158.722 397.863,159.495 398.000,161.938 398.000 C 164.263 398.000,165.234 398.159,165.600 398.600 C 165.991 399.072,167.114 399.200,170.849 399.200 C 173.750 399.200,175.600 399.356,175.600 399.600 C 175.600 399.862,184.200 400.000,200.600 400.000 C 217.000 400.000,225.600 399.862,225.600 399.600 C 225.600 399.356,227.404 399.200,230.213 399.200 C 233.944 399.200,234.869 399.085,235.055 398.600 C 235.233 398.137,236.007 398.000,238.455 398.000 C 240.904 398.000,241.677 397.863,241.855 397.400 C 242.025 396.959,242.721 396.800,244.480 396.800 C 246.538 396.800,246.904 396.688,247.084 396.000 C 247.266 395.305,247.630 395.200,249.859 395.200 C 251.771 395.200,252.484 395.047,252.655 394.600 C 252.824 394.160,253.518 394.000,255.255 394.000 C 256.993 394.000,257.687 393.840,257.855 393.400 C 257.996 393.034,258.602 392.800,259.410 392.800 C 261.131 392.800,262.000 392.450,262.000 391.757 C 262.000 391.355,262.557 391.200,264.000 391.200 C 265.511 391.200,266.000 391.053,266.000 390.600 C 266.000 390.155,266.468 390.000,267.813 390.000 C 269.055 390.000,269.698 389.811,269.855 389.400 C 269.987 389.058,270.583 388.800,271.243 388.800 C 271.879 388.800,272.760 388.440,273.200 388.000 C 273.648 387.552,274.533 387.200,275.213 387.200 C 275.921 387.200,276.521 386.951,276.655 386.600 C 276.787 386.258,277.383 386.000,278.043 386.000 C 278.805 386.000,279.200 385.795,279.200 385.400 C 279.200 385.013,279.591 384.798,280.300 384.795 C 282.013 384.786,283.200 384.360,283.200 383.753 C 283.200 383.388,283.675 383.200,284.600 383.200 C 285.578 383.200,286.000 383.019,286.000 382.600 C 286.000 382.205,286.395 382.000,287.157 382.000 C 287.817 382.000,288.413 381.742,288.545 381.400 C 288.671 381.070,289.247 380.800,289.825 380.800 C 290.538 380.800,290.942 380.544,291.084 380.000 C 291.241 379.399,291.630 379.200,292.647 379.200 C 293.583 379.200,294.000 379.015,294.000 378.600 C 294.000 378.200,294.400 378.000,295.200 378.000 C 296.000 378.000,296.400 377.800,296.400 377.400 C 296.400 377.066,296.756 376.800,297.204 376.800 C 297.646 376.800,298.316 376.440,298.693 376.000 C 299.070 375.560,299.698 375.200,300.089 375.200 C 300.480 375.200,300.800 374.930,300.800 374.600 C 300.800 374.200,301.200 374.000,302.000 374.000 C 302.800 374.000,303.200 373.800,303.200 373.400 C 303.200 373.067,303.556 372.800,304.000 372.800 C 304.440 372.800,305.160 372.440,305.600 372.000 C 306.040 371.560,306.580 371.200,306.800 371.200 C 307.020 371.200,307.200 370.930,307.200 370.600 C 307.200 370.199,307.601 370.000,308.413 370.000 C 309.121 370.000,309.721 369.751,309.855 369.400 C 309.982 369.070,310.336 368.800,310.643 368.800 C 310.949 368.800,311.200 368.440,311.200 368.000 C 311.200 367.352,311.467 367.200,312.600 367.200 C 313.578 367.200,314.000 367.019,314.000 366.600 C 314.000 366.270,314.270 366.000,314.600 366.000 C 314.930 366.000,315.200 365.750,315.200 365.445 C 315.200 365.126,315.798 364.777,316.600 364.626 C 317.438 364.469,318.000 364.130,318.000 363.782 C 318.000 363.462,318.270 363.200,318.600 363.200 C 318.930 363.200,319.200 362.930,319.200 362.600 C 319.200 362.267,319.556 362.000,320.000 362.000 C 320.440 362.000,320.800 361.753,320.800 361.450 C 320.800 361.148,321.340 360.792,322.000 360.660 C 322.704 360.519,323.200 360.168,323.200 359.810 C 323.200 359.475,323.476 359.200,323.813 359.200 C 324.149 359.200,324.529 358.930,324.655 358.600 C 324.782 358.270,325.136 358.000,325.443 358.000 C 325.749 358.000,326.000 357.730,326.000 357.400 C 326.000 357.070,326.270 356.800,326.600 356.800 C 326.933 356.800,327.200 356.444,327.200 356.000 C 327.200 355.376,327.467 355.200,328.413 355.200 C 329.121 355.200,329.721 354.951,329.855 354.600 C 329.982 354.270,330.336 354.000,330.643 354.000 C 330.949 354.000,331.200 353.751,331.200 353.447 C 331.200 353.142,331.560 352.799,332.000 352.684 C 332.440 352.569,332.800 352.188,332.800 351.837 C 332.800 351.487,333.070 351.200,333.400 351.200 C 333.730 351.200,334.000 350.930,334.000 350.600 C 334.000 350.270,334.270 350.000,334.600 350.000 C 334.930 350.000,335.200 349.751,335.200 349.447 C 335.200 349.142,335.560 348.799,336.000 348.684 C 336.440 348.569,336.800 348.188,336.800 347.837 C 336.800 347.487,337.070 347.200,337.400 347.200 C 337.730 347.200,338.000 346.930,338.000 346.600 C 338.000 346.270,338.270 346.000,338.600 346.000 C 338.930 346.000,339.200 345.751,339.200 345.447 C 339.200 345.142,339.560 344.799,340.000 344.684 C 340.440 344.569,340.800 344.188,340.800 343.837 C 340.800 343.487,341.070 343.200,341.400 343.200 C 341.730 343.200,342.000 342.930,342.000 342.600 C 342.000 342.270,342.270 342.000,342.600 342.000 C 342.930 342.000,343.200 341.751,343.200 341.447 C 343.200 341.142,343.560 340.799,344.000 340.684 C 344.440 340.569,344.800 340.188,344.800 339.837 C 344.800 339.487,345.070 339.200,345.400 339.200 C 345.730 339.200,346.000 338.930,346.000 338.600 C 346.000 338.270,346.270 338.000,346.600 338.000 C 346.930 338.000,347.200 337.751,347.200 337.447 C 347.200 337.142,347.560 336.799,348.000 336.684 C 348.440 336.569,348.800 336.188,348.800 335.837 C 348.800 335.487,349.070 335.200,349.400 335.200 C 349.730 335.200,350.000 334.930,350.000 334.600 C 350.000 334.270,350.270 334.000,350.600 334.000 C 350.930 334.000,351.200 333.751,351.200 333.447 C 351.200 333.142,351.560 332.799,352.000 332.684 C 352.440 332.569,352.800 332.188,352.800 331.837 C 352.800 331.487,353.070 331.200,353.400 331.200 C 353.730 331.200,354.000 330.949,354.000 330.643 C 354.000 330.336,354.270 329.982,354.600 329.855 C 354.951 329.721,355.200 329.121,355.200 328.413 C 355.200 327.467,355.376 327.200,356.000 327.200 C 356.444 327.200,356.800 326.933,356.800 326.600 C 356.800 326.270,357.070 326.000,357.400 326.000 C 357.730 326.000,358.000 325.749,358.000 325.443 C 358.000 325.136,358.270 324.782,358.600 324.655 C 358.930 324.529,359.200 324.149,359.200 323.813 C 359.200 323.476,359.456 323.200,359.768 323.200 C 360.081 323.200,360.455 322.660,360.600 322.000 C 360.745 321.340,361.119 320.800,361.432 320.800 C 361.744 320.800,362.000 320.440,362.000 320.000 C 362.000 319.556,362.267 319.200,362.600 319.200 C 362.930 319.200,363.200 318.924,363.200 318.587 C 363.200 318.251,363.459 317.876,363.776 317.754 C 364.092 317.633,364.466 317.008,364.607 316.367 C 364.748 315.725,365.119 315.200,365.432 315.200 C 365.744 315.200,366.000 314.949,366.000 314.643 C 366.000 314.336,366.270 313.982,366.600 313.855 C 366.951 313.721,367.200 313.121,367.200 312.413 C 367.200 311.467,367.376 311.200,368.000 311.200 C 368.440 311.200,368.800 310.949,368.800 310.643 C 368.800 310.336,369.070 309.982,369.400 309.855 C 369.751 309.721,370.000 309.121,370.000 308.413 C 370.000 307.601,370.199 307.200,370.600 307.200 C 370.930 307.200,371.200 306.930,371.200 306.600 C 371.200 306.270,371.560 305.640,372.000 305.200 C 372.440 304.760,372.800 304.130,372.800 303.800 C 372.800 303.470,373.070 303.200,373.400 303.200 C 373.795 303.200,374.000 302.805,374.000 302.043 C 374.000 301.383,374.258 300.787,374.600 300.655 C 374.951 300.521,375.200 299.921,375.200 299.213 C 375.200 298.390,375.397 298.000,375.813 298.000 C 376.149 298.000,376.544 297.685,376.690 297.300 C 376.836 296.915,377.190 296.362,377.478 296.071 C 377.765 295.781,378.000 295.215,378.000 294.814 C 378.000 294.413,378.270 293.982,378.600 293.855 C 378.951 293.721,379.200 293.121,379.200 292.413 C 379.200 291.618,379.401 291.200,379.782 291.200 C 380.128 291.200,380.468 290.644,380.621 289.828 C 380.763 289.073,381.131 288.359,381.439 288.240 C 381.748 288.122,382.000 287.589,382.000 287.055 C 382.000 286.522,382.270 285.982,382.600 285.855 C 383.008 285.699,383.200 285.060,383.200 283.859 C 383.200 282.430,383.352 282.053,384.000 281.884 C 384.583 281.732,384.800 281.338,384.800 280.437 C 384.800 279.604,384.996 279.200,385.400 279.200 C 385.819 279.200,386.000 278.778,386.000 277.800 C 386.000 276.822,386.181 276.400,386.600 276.400 C 387.042 276.400,387.200 275.939,387.200 274.647 C 387.200 273.230,387.353 272.853,388.000 272.684 C 388.587 272.530,388.800 272.138,388.800 271.209 C 388.800 270.513,389.070 269.673,389.400 269.343 C 389.730 269.013,390.000 268.145,390.000 267.414 C 390.000 266.602,390.233 265.996,390.600 265.855 C 391.001 265.702,391.200 265.071,391.200 263.957 C 391.200 262.876,391.430 262.120,391.852 261.811 C 392.250 261.520,392.582 260.532,392.702 259.274 C 392.811 258.142,393.148 257.009,393.450 256.758 C 393.779 256.485,394.000 255.518,394.000 254.351 C 394.000 252.883,394.149 252.400,394.600 252.400 C 395.072 252.400,395.200 251.844,395.200 249.800 C 395.200 247.853,395.339 247.200,395.753 247.200 C 396.468 247.200,396.788 245.955,396.795 243.143 C 396.798 241.509,396.966 240.822,397.400 240.655 C 397.863 240.477,398.000 239.704,398.000 237.255 C 398.000 234.807,398.137 234.033,398.600 233.855 C 399.085 233.669,399.200 232.744,399.200 229.013 C 399.200 226.204,399.356 224.400,399.600 224.400 C 399.862 224.400,400.000 216.000,400.000 200.000 C 400.000 184.000,399.862 175.600,399.600 175.600 C 399.356 175.600,399.200 173.796,399.200 170.987 C 399.200 167.256,399.085 166.331,398.600 166.145 C 398.138 165.967,398.000 165.200,398.000 162.806 C 398.000 160.531,397.839 159.564,397.400 159.200 C 397.011 158.877,396.798 157.981,396.795 156.651 C 396.788 154.037,396.453 152.800,395.753 152.800 C 395.339 152.800,395.200 152.147,395.200 150.200 C 395.200 148.156,395.072 147.600,394.600 147.600 C 394.150 147.600,394.000 147.121,394.000 145.689 C 394.000 144.638,393.756 143.423,393.458 142.989 C 393.161 142.555,392.813 141.396,392.685 140.414 C 392.557 139.432,392.171 138.422,391.827 138.170 C 391.431 137.881,391.200 137.096,391.200 136.043 C 391.200 134.929,391.001 134.298,390.600 134.145 C 390.233 134.004,390.000 133.398,390.000 132.586 C 390.000 131.855,389.730 130.987,389.400 130.657 C 389.070 130.327,388.800 129.596,388.800 129.032 C 388.800 128.440,388.462 127.796,388.000 127.507 C 387.403 127.135,387.200 126.574,387.200 125.304 C 387.200 124.056,387.039 123.600,386.600 123.600 C 386.181 123.600,386.000 123.178,386.000 122.200 C 386.000 121.222,385.819 120.800,385.400 120.800 C 385.007 120.800,384.800 120.407,384.800 119.662 C 384.800 119.032,384.443 118.201,384.000 117.800 C 383.514 117.360,383.200 116.568,383.200 115.781 C 383.200 114.998,382.962 114.394,382.600 114.255 C 382.270 114.129,382.000 113.564,382.000 113.000 C 382.000 112.436,381.730 111.871,381.400 111.745 C 381.070 111.618,380.800 111.188,380.800 110.790 C 380.800 109.638,380.361 108.800,379.757 108.800 C 379.403 108.800,379.200 108.357,379.200 107.587 C 379.200 106.879,378.951 106.279,378.600 106.145 C 378.270 106.018,378.000 105.587,378.000 105.186 C 378.000 104.785,377.765 104.219,377.478 103.929 C 377.190 103.638,376.836 103.085,376.690 102.700 C 376.544 102.315,376.149 102.000,375.813 102.000 C 375.397 102.000,375.200 101.610,375.200 100.787 C 375.200 100.079,374.951 99.479,374.600 99.345 C 374.258 99.213,374.000 98.617,374.000 97.957 C 374.000 97.195,373.795 96.800,373.400 96.800 C 373.070 96.800,372.800 96.530,372.800 96.200 C 372.800 95.870,372.440 95.240,372.000 94.800 C 371.560 94.360,371.200 93.730,371.200 93.400 C 371.200 93.070,370.930 92.800,370.600 92.800 C 370.199 92.800,370.000 92.399,370.000 91.587 C 370.000 90.879,369.751 90.279,369.400 90.145 C 369.070 90.018,368.800 89.664,368.800 89.357 C 368.800 89.051,368.440 88.800,368.000 88.800 C 367.376 88.800,367.200 88.533,367.200 87.587 C 367.200 86.879,366.951 86.279,366.600 86.145 C 366.270 86.018,366.000 85.664,366.000 85.357 C 366.000 85.051,365.744 84.800,365.432 84.800 C 365.119 84.800,364.748 84.275,364.607 83.633 C 364.466 82.992,364.092 82.367,363.776 82.246 C 363.459 82.124,363.200 81.749,363.200 81.413 C 363.200 81.076,362.930 80.800,362.600 80.800 C 362.270 80.800,362.000 80.524,362.000 80.187 C 362.000 79.851,361.741 79.476,361.424 79.354 C 361.108 79.233,360.734 78.608,360.593 77.967 C 360.452 77.325,360.081 76.800,359.768 76.800 C 359.456 76.800,359.200 76.524,359.200 76.187 C 359.200 75.851,358.930 75.471,358.600 75.345 C 358.270 75.218,358.000 74.864,358.000 74.557 C 358.000 74.251,357.730 74.000,357.400 74.000 C 357.070 74.000,356.800 73.730,356.800 73.400 C 356.800 73.067,356.444 72.800,356.000 72.800 C 355.384 72.800,355.200 72.533,355.200 71.643 C 355.200 70.983,354.942 70.387,354.600 70.255 C 354.270 70.129,354.000 69.749,354.000 69.413 C 354.000 69.076,353.751 68.800,353.447 68.800 C 353.142 68.800,352.799 68.440,352.684 68.000 C 352.569 67.560,352.188 67.200,351.837 67.200 C 351.487 67.200,351.200 66.930,351.200 66.600 C 351.200 66.270,350.930 66.000,350.600 66.000 C 350.270 66.000,350.000 65.730,350.000 65.400 C 350.000 65.070,349.751 64.800,349.447 64.800 C 349.142 64.800,348.799 64.440,348.684 64.000 C 348.569 63.560,348.188 63.200,347.837 63.200 C 347.487 63.200,347.200 62.930,347.200 62.600 C 347.200 62.270,346.930 62.000,346.600 62.000 C 346.270 62.000,346.000 61.829,346.000 61.621 C 346.000 61.070,344.188 59.200,343.654 59.200 C 343.404 59.200,343.200 58.930,343.200 58.600 C 343.200 58.270,342.930 58.000,342.600 58.000 C 342.270 58.000,342.000 57.730,342.000 57.400 C 342.000 57.070,341.751 56.800,341.447 56.800 C 341.142 56.800,340.799 56.440,340.684 56.000 C 340.569 55.560,340.188 55.200,339.837 55.200 C 339.487 55.200,339.200 54.930,339.200 54.600 C 339.200 54.270,338.930 54.000,338.600 54.000 C 338.270 54.000,338.000 53.730,338.000 53.400 C 338.000 53.070,337.751 52.800,337.447 52.800 C 337.142 52.800,336.799 52.440,336.684 52.000 C 336.569 51.560,336.188 51.200,335.837 51.200 C 335.487 51.200,335.200 50.930,335.200 50.600 C 335.200 50.270,334.930 50.000,334.600 50.000 C 334.270 50.000,334.000 49.730,334.000 49.400 C 334.000 49.070,333.751 48.800,333.447 48.800 C 333.142 48.800,332.799 48.440,332.684 48.000 C 332.569 47.560,332.188 47.200,331.837 47.200 C 331.487 47.200,331.200 46.930,331.200 46.600 C 331.200 46.270,330.949 46.000,330.643 46.000 C 330.336 46.000,329.982 45.730,329.855 45.400 C 329.721 45.049,329.121 44.800,328.413 44.800 C 327.467 44.800,327.200 44.624,327.200 44.000 C 327.200 43.556,326.933 43.200,326.600 43.200 C 326.270 43.200,326.000 42.930,326.000 42.600 C 326.000 42.270,325.749 42.000,325.443 42.000 C 325.136 42.000,324.782 41.730,324.655 41.400 C 324.529 41.070,324.149 40.800,323.813 40.800 C 323.476 40.800,323.200 40.544,323.200 40.232 C 323.200 39.919,322.675 39.548,322.033 39.407 C 321.392 39.266,320.767 38.892,320.646 38.576 C 320.524 38.259,320.149 38.000,319.813 38.000 C 319.476 38.000,319.200 37.730,319.200 37.400 C 319.200 37.070,318.930 36.800,318.600 36.800 C 318.270 36.800,318.000 36.538,318.000 36.218 C 318.000 35.870,317.438 35.531,316.600 35.374 C 315.798 35.223,315.200 34.874,315.200 34.555 C 315.200 34.250,314.930 34.000,314.600 34.000 C 314.270 34.000,314.000 33.730,314.000 33.400 C 314.000 32.981,313.578 32.800,312.600 32.800 C 311.467 32.800,311.200 32.648,311.200 32.000 C 311.200 31.560,310.949 31.200,310.643 31.200 C 310.336 31.200,309.982 30.930,309.855 30.600 C 309.721 30.249,309.121 30.000,308.413 30.000 C 307.601 30.000,307.200 29.801,307.200 29.400 C 307.200 29.070,307.020 28.800,306.800 28.800 C 306.580 28.800,306.040 28.440,305.600 28.000 C 305.160 27.560,304.440 27.200,304.000 27.200 C 303.556 27.200,303.200 26.933,303.200 26.600 C 303.200 26.200,302.800 26.000,302.000 26.000 C 301.200 26.000,300.800 25.800,300.800 25.400 C 300.800 25.067,300.444 24.800,300.000 24.800 C 299.560 24.800,299.200 24.611,299.200 24.380 C 299.200 24.148,298.570 23.696,297.800 23.374 C 297.030 23.052,296.400 22.612,296.400 22.395 C 296.400 22.178,295.860 22.000,295.200 22.000 C 294.400 22.000,294.000 21.800,294.000 21.400 C 294.000 20.985,293.583 20.800,292.647 20.800 C 291.630 20.800,291.241 20.601,291.084 20.000 C 290.942 19.456,290.538 19.200,289.825 19.200 C 289.247 19.200,288.671 18.930,288.545 18.600 C 288.413 18.258,287.817 18.000,287.157 18.000 C 286.395 18.000,286.000 17.795,286.000 17.400 C 286.000 16.981,285.578 16.800,284.600 16.800 C 283.675 16.800,283.200 16.612,283.200 16.247 C 283.200 15.640,282.013 15.214,280.300 15.205 C 279.591 15.202,279.200 14.987,279.200 14.600 C 279.200 14.205,278.805 14.000,278.043 14.000 C 277.383 14.000,276.787 13.742,276.655 13.400 C 276.521 13.049,275.921 12.800,275.213 12.800 C 274.533 12.800,273.648 12.448,273.200 12.000 C 272.760 11.560,271.879 11.200,271.243 11.200 C 270.583 11.200,269.987 10.942,269.855 10.600 C 269.698 10.189,269.055 10.000,267.813 10.000 C 266.468 10.000,266.000 9.845,266.000 9.400 C 266.000 8.947,265.511 8.800,264.000 8.800 C 262.557 8.800,262.000 8.645,262.000 8.243 C 262.000 7.550,261.131 7.200,259.410 7.200 C 258.602 7.200,257.996 6.966,257.855 6.600 C 257.687 6.160,256.993 6.000,255.255 6.000 C 253.518 6.000,252.824 5.840,252.655 5.400 C 252.484 4.953,251.771 4.800,249.859 4.800 C 247.630 4.800,247.266 4.695,247.084 4.000 C 246.906 3.319,246.538 3.200,244.609 3.200 C 243.128 3.200,242.135 2.992,241.743 2.600 C 241.319 2.176,240.284 2.000,238.214 2.000 C 235.980 2.000,235.231 1.858,235.055 1.400 C 234.869 0.915,233.944 0.800,230.213 0.800 C 227.404 0.800,225.600 0.644,225.600 0.400 C 225.600 0.138,217.000 0.000,200.600 0.000 C 184.200 0.000,175.600 0.138,175.600 0.400 M210.248 81.009 C 216.211 81.620,223.825 82.808,227.200 83.654 C 232.100 84.882,241.931 87.926,243.800 88.793 C 244.240 88.997,245.692 89.611,247.027 90.156 C 255.433 93.593,264.138 98.697,272.994 105.381 C 277.165 108.530,287.481 118.259,290.406 121.804 C 294.027 126.191,294.897 127.304,296.741 129.901 C 297.873 131.497,298.800 132.900,298.800 133.018 C 298.800 133.137,298.987 133.451,299.215 133.717 C 299.443 133.983,300.298 135.285,301.115 136.611 C 301.932 137.937,302.821 139.377,303.092 139.811 C 303.878 141.070,309.398 152.431,310.132 154.300 C 310.499 155.235,311.063 156.675,311.385 157.500 C 312.117 159.377,314.547 167.068,315.334 170.000 C 315.864 171.972,316.681 175.905,318.036 183.000 C 318.679 186.372,318.981 206.556,318.454 211.000 C 317.629 217.954,316.763 222.570,314.816 230.400 C 313.947 233.893,310.564 243.416,309.920 244.180 C 309.744 244.389,309.600 244.815,309.600 245.126 C 309.600 245.883,304.489 256.056,302.323 259.610 C 301.376 261.165,300.418 262.744,300.195 263.119 C 299.242 264.722,298.082 266.395,295.840 269.400 C 285.514 283.239,275.969 291.917,260.200 301.801 C 257.414 303.548,248.739 307.757,244.824 309.262 C 242.501 310.155,240.309 311.033,239.954 311.213 C 239.256 311.566,229.071 314.405,225.800 315.159 C 209.211 318.981,185.604 318.471,170.200 313.958 C 160.714 311.178,157.067 309.808,148.870 305.946 C 144.337 303.810,142.763 303.584,139.373 304.579 C 138.288 304.898,135.240 305.723,132.600 306.414 C 129.960 307.104,126.450 308.029,124.800 308.469 C 123.150 308.909,120.180 309.686,118.200 310.196 C 116.220 310.706,112.440 311.696,109.800 312.396 C 107.160 313.096,103.650 314.024,102.000 314.457 C 91.335 317.258,87.950 318.152,86.000 318.683 C 81.452 319.921,80.948 319.466,82.183 315.240 C 83.429 310.980,83.983 308.977,85.401 303.600 C 86.184 300.630,87.086 297.300,87.404 296.200 C 88.085 293.851,89.479 288.795,89.997 286.800 C 90.197 286.030,90.710 284.140,91.136 282.600 C 91.562 281.060,92.564 277.370,93.362 274.400 C 94.160 271.430,94.987 268.456,95.200 267.790 C 97.758 259.787,97.719 258.677,94.653 252.517 C 78.432 219.922,77.755 181.608,92.837 149.686 C 93.743 147.769,94.648 145.840,94.849 145.400 C 95.049 144.960,95.632 143.880,96.143 143.000 C 96.654 142.120,97.513 140.590,98.051 139.600 C 104.649 127.477,116.577 113.984,129.200 104.363 C 140.694 95.603,154.972 88.587,169.000 84.807 C 177.753 82.448,178.715 82.268,188.200 81.205 C 196.314 80.295,202.716 80.238,210.248 81.009 M186.000 101.409 C 179.452 102.207,176.885 102.770,170.000 104.916 C 164.362 106.674,155.337 110.757,151.200 113.424 C 150.210 114.062,149.097 114.767,148.726 114.992 C 139.637 120.493,130.679 129.257,119.278 143.800 C 116.754 147.020,110.742 158.096,108.857 163.000 C 108.350 164.320,107.681 166.030,107.370 166.800 C 101.342 181.740,100.405 203.915,105.020 222.400 C 106.428 228.036,107.739 232.288,108.783 234.600 C 108.982 235.040,109.912 237.200,110.851 239.400 C 111.790 241.600,113.062 244.263,113.679 245.318 C 114.296 246.372,114.800 247.302,114.800 247.385 C 114.800 247.467,115.639 248.944,116.666 250.667 C 119.523 255.466,119.392 257.463,115.373 270.400 C 115.066 271.390,114.176 274.630,113.395 277.600 C 112.615 280.570,111.716 283.900,111.397 285.000 C 109.457 291.691,109.361 291.603,116.514 289.712 C 119.421 288.944,122.530 288.166,123.423 287.984 C 124.316 287.802,125.486 287.470,126.023 287.247 C 126.560 287.024,127.900 286.654,129.000 286.425 C 130.100 286.196,133.340 285.368,136.200 284.584 C 144.323 282.358,144.492 282.324,146.442 282.503 C 147.618 282.610,149.135 283.186,150.642 284.095 C 160.866 290.267,173.300 294.590,186.800 296.666 C 196.524 298.161,218.357 297.281,222.370 295.231 C 222.717 295.054,223.733 294.798,224.629 294.662 C 226.938 294.310,234.820 291.685,238.600 290.009 C 271.536 275.408,292.150 248.578,298.073 212.600 C 298.780 208.308,298.782 191.308,298.076 187.000 C 297.365 182.661,296.117 176.632,295.426 174.200 C 294.388 170.544,291.627 162.034,291.245 161.312 C 291.038 160.920,290.474 159.610,289.992 158.400 C 287.861 153.052,283.151 144.575,279.831 140.109 C 269.004 125.546,256.944 116.016,241.000 109.424 C 235.661 107.217,234.879 106.932,231.600 105.996 C 229.950 105.526,228.150 104.979,227.600 104.781 C 218.945 101.667,197.879 99.960,186.000 101.409 M167.681 145.126 C 168.904 145.882,172.000 150.964,172.000 152.215 C 172.000 152.360,172.258 153.046,172.573 153.740 C 172.888 154.433,173.887 156.800,174.793 159.000 C 175.699 161.200,176.599 163.360,176.793 163.800 C 182.053 175.721,181.898 177.133,174.450 185.200 C 170.836 189.115,170.453 190.193,171.728 192.866 C 176.059 201.938,191.465 218.125,199.200 221.729 C 199.530 221.883,200.340 222.357,201.000 222.783 C 203.264 224.243,211.048 227.962,212.847 228.444 C 216.543 229.432,217.493 228.606,227.498 215.695 C 229.672 212.891,231.320 212.952,238.000 216.085 C 262.645 227.645,260.599 226.105,260.271 232.839 C 260.053 237.334,259.873 238.078,258.066 242.000 C 252.032 255.094,234.088 259.488,214.000 252.791 C 202.916 249.095,189.185 241.619,181.325 235.000 C 181.064 234.780,180.164 234.060,179.326 233.400 C 168.952 225.230,156.765 211.037,147.710 196.582 C 136.790 179.147,138.077 159.315,150.877 147.807 C 154.813 144.268,163.937 142.812,167.681 145.126 " stroke="none" fill="#0b9c13" fill-rule="evenodd"></path></g></svg>